HIERARCHY
ROOT Hips
{
	OFFSET 53.316898 -11.186609 58.477798
	CHANNELS 6 Xposition Yposition Zposition Xrotation Yrotation Zrotation
	JOINT spine
	{
		OFFSET 0.000000 -0.467660 8.132500
		CHANNELS 3 Xrotation Yrotation Zrotation
		JOINT spine1
		{
			OFFSET 0.000000 -0.000002 10.349800
			CHANNELS 3 Xrotation Yrotation Zrotation
			JOINT spine2
			{
				OFFSET 0.000000 -0.000002 9.916992
				CHANNELS 3 Xrotation Yrotation Zrotation
				JOINT Neck
				{
					OFFSET 0.000000 -1.213903 25.460999
					CHANNELS 3 Xrotation Yrotation Zrotation
					JOINT Head
					{
						OFFSET 0.000000 -0.000002 7.692451
						CHANNELS 3 Xrotation Yrotation Zrotation
						End Site
						{
							OFFSET 0.000000 6.140627 18.620003
						}
					}
				}
				JOINT RightShoulder
				{
					OFFSET -4.175751 0.581443 10.709602
					CHANNELS 3 Xrotation Yrotation Zrotation
					JOINT RightArm
					{
						OFFSET 0.000000 -0.000002 14.046600
						CHANNELS 3 Xrotation Yrotation Zrotation
						JOINT RightArmRoll
						{
							OFFSET 0.000000 -0.000001 7.090988
							CHANNELS 3 Xrotation Yrotation Zrotation
							JOINT RightForeArm
							{
								OFFSET 0.000000 -0.000004 20.653496
								CHANNELS 3 Xrotation Yrotation Zrotation
								JOINT RightForeArmRoll
								{
									OFFSET 0.000000 -0.000001 7.957184
									CHANNELS 3 Xrotation Yrotation Zrotation
									JOINT RightHand
									{
										OFFSET 0.000000 -0.000003 15.968292
										CHANNELS 3 Xrotation Yrotation Zrotation
										End Site
										{
											OFFSET 0.000000 0.000000 0.100006
										}
									}
								}
							}
						}
					}
				}
				JOINT LeftShoulder
				{
					OFFSET 4.175751 0.581443 10.709602
					CHANNELS 3 Xrotation Yrotation Zrotation
					JOINT LeftArm
					{
						OFFSET 0.000000 -0.000002 14.046600
						CHANNELS 3 Xrotation Yrotation Zrotation
						JOINT LeftArmRoll
						{
							OFFSET 0.000000 -0.000001 7.090981
							CHANNELS 3 Xrotation Yrotation Zrotation
							JOINT LeftForeArm
							{
								OFFSET 0.000000 -0.000004 20.653503
								CHANNELS 3 Xrotation Yrotation Zrotation
								JOINT LeftForeArmRoll
								{
									OFFSET 0.000000 -0.000001 7.957184
									CHANNELS 3 Xrotation Yrotation Zrotation
									JOINT LeftHand
									{
										OFFSET 0.000000 -0.000003 15.968292
										CHANNELS 3 Xrotation Yrotation Zrotation
										End Site
										{
											OFFSET 0.000000 0.000000 0.100006
										}
									}
								}
							}
						}
					}
				}
			}
		}
	}
	JOINT RightUpLeg
	{
		OFFSET -7.208340 1.108840 -1.321819
		CHANNELS 3 Xrotation Yrotation Zrotation
		JOINT RightUpLegRoll
		{
			OFFSET 0.000000 -0.000003 18.723797
			CHANNELS 3 Xrotation Yrotation Zrotation
			JOINT RightLeg
			{
				OFFSET 0.000000 0.000004 -23.186600
				CHANNELS 3 Xrotation Yrotation Zrotation
				JOINT RightLegRoll
				{
					OFFSET 0.000000 -0.000004 23.262398
					CHANNELS 3 Xrotation Yrotation Zrotation
					JOINT RightFoot
					{
						OFFSET 0.000000 -0.000003 19.362099
						CHANNELS 3 Xrotation Yrotation Zrotation
						JOINT RightToeBase
						{
							OFFSET 0.000000 -0.000003 16.185699
							CHANNELS 3 Xrotation Yrotation Zrotation
							End Site
							{
								OFFSET 0.006859 0.903521 7.838631
							}
						}
					}
				}
			}
		}
	}
	JOINT LeftUpLeg
	{
		OFFSET 7.208340 1.108840 -1.321819
		CHANNELS 3 Xrotation Yrotation Zrotation
		JOINT LeftUpLegRoll
		{
			OFFSET 0.000000 -0.000003 18.723904
			CHANNELS 3 Xrotation Yrotation Zrotation
			JOINT LeftLeg
			{
				OFFSET 0.000000 -0.000004 23.186501
				CHANNELS 3 Xrotation Yrotation Zrotation
				JOINT LeftLegRoll
				{
					OFFSET 0.000000 -0.000004 23.477501
					CHANNELS 3 Xrotation Yrotation Zrotation
					JOINT LeftFoot
					{
						OFFSET 0.000000 -0.000003 19.147003
						CHANNELS 3 Xrotation Yrotation Zrotation
						JOINT LeftToeBase
						{
							OFFSET 0.000000 -0.000003 16.185699
							CHANNELS 3 Xrotation Yrotation Zrotation
							End Site
							{
								OFFSET -0.030746 0.903521 7.838623
							}
						}
					}
				}
			}
		}
	}
}
MOTION
Frames: 8
Frame Time: 0.041667
55.909996 -52.579811 96.634796 -3.562289 0.559367 0.574881 -1.288970 -0.461751 0.051242 1.425283 -0.917282 0.090249 3.070453 -0.916037 0.101229 17.802142 5.755949 -13.535219 15.343542 -9.562653 -11.572217 -19.706296 -57.488609 -23.304757 -44.774834 -121.008399 -18.509613 0.000006 0.000027 0.000021 1.330079 -3.558315 -0.495331 0.000008 0.000008 -3.000001 -5.000201 -7.999652 0.000040 -14.279438 62.772068 16.982412 -47.484042 116.828555 35.292421 -0.000000 -0.000020 0.000013 0.063348 8.121707 1.197264 -0.000001 -0.000005 3.048289 -5.000223 7.998982 -0.000130 -0.071576 -175.939007 2.775901 -179.999991 0.000005 -1.128998 172.368498 -2.400567 -0.424545 0.000003 -0.000000 0.091130 68.811950 6.911424 2.089509 25.456950 -7.355614 0.000010 0.623321 175.835243 -0.473398 -0.000020 -0.000004 -1.134650 -9.210749 1.514911 0.473257 -0.000001 0.000002 -0.172122 70.342629 -6.871003 -2.088358 25.577045 7.355237 -0.179489 
55.909599 -52.579811 96.622299 -3.558823 0.562075 0.577833 -1.287330 -0.461593 0.051812 1.428563 -0.917460 0.091866 3.073734 -0.916202 0.102848 17.800289 5.742111 -13.533899 15.339546 -9.550771 -11.574037 -19.710801 -57.487981 -23.310153 -44.790646 -120.998195 -18.460552 0.000002 0.000028 0.000018 1.306559 -3.512819 -0.493286 0.000007 0.000007 -3.000001 -5.000201 -7.999649 0.000041 -14.279469 62.762800 16.982191 -47.467510 116.829197 35.259404 -0.000002 -0.000020 0.000010 0.063349 8.114157 1.201031 0.000000 -0.000005 3.048290 -5.000223 7.998982 -0.000131 -0.076504 -175.944006 2.770919 -179.999991 0.000006 -1.128998 172.367228 -2.398583 -0.424333 0.000003 -0.000001 0.091129 68.813958 6.911439 2.089488 25.456953 -7.355614 0.000010 0.613782 175.832251 -0.473235 -0.000020 -0.000004 -1.134650 -9.218854 1.513513 0.473491 -0.000002 0.000002 -0.172201 70.346454 -6.870999 -2.088322 25.576639 7.355234 -0.178896 
55.908596 -52.577911 96.632996 -3.555389 0.564925 0.580686 -1.285710 -0.461422 0.052397 1.431804 -0.917626 0.093528 3.076975 -0.916357 0.104512 17.798310 5.727582 -13.532345 15.335619 -9.538161 -11.575835 -19.715288 -57.487660 -23.315546 -44.807947 -120.987430 -18.411116 0.000003 0.000026 0.000018 1.282456 -3.465923 -0.491143 0.000009 0.000008 -3.000001 -5.000203 -7.999651 0.000044 -14.279585 62.753114 16.982070 -47.448740 116.830154 35.226205 -0.000001 -0.000020 0.000011 0.063352 8.107778 1.204726 -0.000000 -0.000005 3.048281 -5.000224 7.998982 -0.000129 -0.081683 -175.950003 2.765291 -179.999991 0.000005 -1.128998 172.365424 -2.394605 -0.423878 0.000003 -0.000001 0.091129 68.816485 6.911416 2.089525 25.456955 -7.355613 0.000010 0.603723 175.829232 -0.473187 -0.000020 -0.000004 -1.134650 -9.228071 1.512102 0.473772 -0.000002 0.000002 -0.172318 70.350921 -6.871014 -2.088348 25.576140 7.355239 -0.178227 
55.916401 -52.574516 96.634102 -3.551964 0.567874 0.583472 -1.284110 -0.461240 0.052992 1.435004 -0.917786 0.095221 3.080175 -0.916503 0.106207 17.796119 5.712575 -13.530618 15.331456 -9.525041 -11.577715 -19.719934 -57.487633 -23.321097 -44.825565 -120.976789 -18.360566 0.000004 0.000027 0.000019 1.257948 -3.418039 -0.488914 0.000009 0.000007 -3.000000 -5.000202 -7.999650 0.000043 -14.279789 62.743101 16.982024 -47.428031 116.831602 35.192444 -0.000002 -0.000019 0.000011 0.063351 8.102216 1.208373 -0.000002 -0.000005 3.048279 -5.000223 7.998982 -0.000130 -0.087039 -175.955017 2.759230 -179.999991 0.000005 -1.128997 172.363211 -2.390625 -0.423439 0.000003 -0.000000 0.091130 68.819231 6.911439 2.089457 25.456955 -7.355614 0.000010 0.593297 175.825216 -0.473231 -0.000020 -0.000004 -1.134650 -9.238079 1.510678 0.474084 -0.000002 0.000002 -0.172462 70.355907 -6.870996 -2.088337 25.575730 7.355237 -0.177543 
55.916996 -52.573410 96.633995 -3.548566 0.570880 0.586218 -1.282518 -0.461054 0.053592 1.438195 -0.917942 0.096931 3.083366 -0.916646 0.107919 17.793816 5.697292 -13.528889 15.327388 -9.511616 -11.579457 -19.724449 -57.487715 -23.326542 -44.843327 -120.966216 -18.309348 0.000005 0.000027 0.000020 1.233211 -3.369581 -0.486616 0.000010 0.000008 -3.000001 -5.000202 -7.999650 0.000043 -14.280053 62.732986 16.982062 -47.405553 116.833582 35.157624 -0.000002 -0.000020 0.000012 0.063353 8.097129 1.211990 0.000000 -0.000004 3.048270 -5.000225 7.998982 -0.000130 -0.092491 -175.962011 2.752916 -179.999991 0.000005 -1.128998 172.360766 -2.386658 -0.423011 0.000003 -0.000000 0.091130 68.822188 6.911440 2.089472 25.456953 -7.355615 0.000010 0.582666 175.821213 -0.473321 -0.000020 -0.000005 -1.134650 -9.248536 1.509241 0.474414 -0.000002 0.000002 -0.172622 70.361112 -6.870986 -2.088415 25.575232 7.355239 -0.176835 
55.912399 -52.571716 96.630081 -3.545158 0.573902 0.588954 -1.280928 -0.460867 0.054193 1.441375 -0.918096 0.098646 3.086546 -0.916787 0.109636 17.791415 5.681938 -13.527027 15.323212 -9.498127 -11.581337 -19.729203 -57.487865 -23.332191 -44.862141 -120.954877 -18.259073 0.000003 0.000027 0.000018 1.208419 -3.320994 -0.484269 0.000009 0.000009 -2.999997 -5.000202 -7.999651 0.000044 -14.280293 62.722781 16.982062 -47.384372 116.834825 35.124514 -0.000002 -0.000020 0.000012 0.063351 8.092157 1.215595 -0.000000 -0.000005 3.048259 -5.000221 7.998982 -0.000129 -0.097971 -175.967994 2.746552 -179.999991 0.000005 -1.128998 172.358266 -2.382677 -0.423594 0.000003 -0.000000 0.091130 68.825248 6.911445 2.089482 25.456955 -7.355616 0.000009 0.571979 175.818222 -0.473411 -0.000020 -0.000004 -1.134650 -9.259103 1.507804 0.474747 -0.000002 0.000002 -0.172785 70.366419 -6.870977 -2.088383 25.574716 7.355243 -0.176117 
55.915295 -52.570114 96.627693 -3.541749 0.576894 0.591709 -1.279339 -0.460681 0.054792 1.444565 -0.918252 0.100353 3.089737 -0.916930 0.111345 17.789224 5.666717 -13.525334 15.319156 -9.484778 -11.583156 -19.733728 -57.487961 -23.337646 -44.880821 -120.943457 -18.209202 0.000004 0.000026 0.000020 1.183753 -3.272693 -0.481893 0.000009 0.000008 -2.999999 -5.000204 -7.999651 0.000043 -14.280541 62.712673 16.982067 -47.363516 116.836205 35.091258 -0.000003 -0.000019 0.000011 0.063350 8.086948 1.219211 0.000003 -0.000005 3.048260 -5.000222 7.998982 -0.000130 -0.103402 -175.974005 2.740300 -179.999991 0.000005 -1.128998 172.355849 -2.378698 -0.423162 0.000003 -0.000001 0.091129 68.828192 6.911409 2.089492 25.456952 -7.355614 0.000010 0.561396 175.814192 -0.473485 -0.000020 -0.000005 -1.134650 -9.269441 1.506368 0.475071 -0.000002 0.000002 -0.172941 70.371528 -6.870994 -2.088370 25.574320 7.355240 -0.175423 
55.918098 -52.565414 96.629593 -3.538322 0.579817 0.594512 -1.277730 -0.460503 0.055384 1.447786 -0.918413 0.102037 3.092948 -0.917079 0.113030 17.787042 5.651853 -13.523654 15.315111 -9.471808 -11.584971 -19.738320 -57.487824 -23.343136 -44.898184 -120.932707 -18.158845 0.000006 0.000026 0.000020 1.159378 -3.225103 -0.479516 0.000008 0.000008 -3.000002 -5.000202 -7.999651 0.000042 -14.280732 62.702769 16.982015 -47.342985 116.837721 35.057230 -0.000002 -0.000020 0.000010 0.063350 8.081158 1.222876 0.000001 -0.000004 3.048250 -5.000223 7.998982 -0.000130 -0.108709 -175.979004 2.734367 -179.999991 0.000005 -1.128998 172.353758 -2.375707 -0.422850 0.000003 -0.000000 0.091129 68.830931 6.911395 2.089519 25.456953 -7.355615 0.000011 0.551073 175.810189 -0.473500 -0.000020 -0.000005 -1.134650 -9.279229 1.504945 0.475372 -0.000002 0.000002 -0.173078 70.376405 -6.870978 -2.088366 25.573815 7.355244 -0.174736 
